<svg id="visual" viewBox="0 0 900 600" width="900" height="600" xmlns="http://www.w3.org/2000/svg" xmlns:xlink="http://www.w3.org/1999/xlink" version="1.1"><path d="M0 347L21.5 354.7C43 362.3 86 377.7 128.8 371.7C171.7 365.7 214.3 338.3 257.2 333.3C300 328.3 343 345.7 385.8 351.2C428.7 356.7 471.3 350.3 514.2 343.2C557 336 600 328 642.8 337.8C685.7 347.7 728.3 375.3 771.2 375.8C814 376.3 857 349.7 878.5 336.3L900 323L900 0L878.5 0C857 0 814 0 771.2 0C728.3 0 685.7 0 642.8 0C600 0 557 0 514.2 0C471.3 0 428.7 0 385.8 0C343 0 300 0 257.2 0C214.3 0 171.7 0 128.8 0C86 0 43 0 21.5 0L0 0Z" fill="#f5e6d1"></path><path d="M0 221L21.5 229C43 237 86 253 128.8 257.8C171.7 262.7 214.3 256.3 257.2 261.7C300 267 343 284 385.8 293.8C428.7 303.7 471.3 306.3 514.2 295.3C557 284.3 600 259.7 642.8 257.8C685.7 256 728.3 277 771.2 286.7C814 296.3 857 294.7 878.5 293.8L900 293L900 0L878.5 0C857 0 814 0 771.2 0C728.3 0 685.7 0 642.8 0C600 0 557 0 514.2 0C471.3 0 428.7 0 385.8 0C343 0 300 0 257.2 0C214.3 0 171.7 0 128.8 0C86 0 43 0 21.5 0L0 0Z" fill="#d1c2af"></path><path d="M0 175L21.5 175.5C43 176 86 177 128.8 186.2C171.7 195.3 214.3 212.7 257.2 205.3C300 198 343 166 385.8 157.3C428.7 148.7 471.3 163.3 514.2 166.7C557 170 600 162 642.8 169.2C685.7 176.3 728.3 198.7 771.2 198.5C814 198.3 857 175.7 878.5 164.3L900 153L900 0L878.5 0C857 0 814 0 771.2 0C728.3 0 685.7 0 642.8 0C600 0 557 0 514.2 0C471.3 0 428.7 0 385.8 0C343 0 300 0 257.2 0C214.3 0 171.7 0 128.8 0C86 0 43 0 21.5 0L0 0Z" fill="#ada08e"></path><path d="M0 106L21.5 111.7C43 117.3 86 128.7 128.8 120.8C171.7 113 214.3 86 257.2 83.8C300 81.7 343 104.3 385.8 104.2C428.7 104 471.3 81 514.2 73.8C557 66.7 600 75.3 642.8 82.3C685.7 89.3 728.3 94.7 771.2 92.7C814 90.7 857 81.3 878.5 76.7L900 72L900 0L878.5 0C857 0 814 0 771.2 0C728.3 0 685.7 0 642.8 0C600 0 557 0 514.2 0C471.3 0 428.7 0 385.8 0C343 0 300 0 257.2 0C214.3 0 171.7 0 128.8 0C86 0 43 0 21.5 0L0 0Z" fill="#8b7f6e"></path></svg>