<svg id="visual" viewBox="0 0 900 600" width="900" height="600" xmlns="http://www.w3.org/2000/svg" xmlns:xlink="http://www.w3.org/1999/xlink" version="1.1"><path d="M0 49L82 61L164 49L245 79L327 73L409 67L491 85L573 67L655 73L736 79L818 67L900 49L900 0L818 0L736 0L655 0L573 0L491 0L409 0L327 0L245 0L164 0L82 0L0 0Z" fill="#f5e6d1"></path><path d="M0 211L82 199L164 175L245 211L327 241L409 235L491 295L573 271L655 211L736 295L818 235L900 253L900 47L818 65L736 77L655 71L573 65L491 83L409 65L327 71L245 77L164 47L82 59L0 47Z" fill="#dacbb7"></path><path d="M0 343L82 301L164 301L245 337L327 349L409 367L491 391L573 343L655 337L736 367L818 313L900 361L900 251L818 233L736 293L655 209L573 269L491 293L409 233L327 239L245 209L164 173L82 197L0 209Z" fill="#bfb19e"></path><path d="M0 439L82 361L164 385L245 439L327 433L409 463L491 451L573 451L655 439L736 457L818 385L900 457L900 359L818 311L736 365L655 335L573 341L491 389L409 365L327 347L245 335L164 299L82 299L0 341Z" fill="#a59886"></path><path d="M0 601L82 601L164 601L245 601L327 601L409 601L491 601L573 601L655 601L736 601L818 601L900 601L900 455L818 383L736 455L655 437L573 449L491 449L409 461L327 431L245 437L164 383L82 359L0 437Z" fill="#8b7f6e"></path></svg>