<svg id="visual" viewBox="0 0 900 600" width="900" height="600" xmlns="http://www.w3.org/2000/svg" xmlns:xlink="http://www.w3.org/1999/xlink" version="1.1"><g fill="#8b7f6e"><circle r="27" cx="618" cy="74"></circle><circle r="6" cx="851" cy="15"></circle><circle r="19" cx="185" cy="410"></circle><circle r="8" cx="424" cy="555"></circle><circle r="11" cx="359" cy="117"></circle><circle r="23" cx="319" cy="311"></circle><circle r="7" cx="109" cy="525"></circle><circle r="21" cx="180" cy="516"></circle><circle r="11" cx="523" cy="152"></circle><circle r="18" cx="761" cy="469"></circle><circle r="18" cx="31" cy="438"></circle><circle r="22" cx="861" cy="486"></circle><circle r="23" cx="192" cy="226"></circle><circle r="9" cx="190" cy="139"></circle><circle r="9" cx="730" cy="76"></circle><circle r="7" cx="512" cy="480"></circle><circle r="22" cx="555" cy="566"></circle><circle r="18" cx="417" cy="387"></circle><circle r="22" cx="49" cy="193"></circle><circle r="18" cx="424" cy="19"></circle><circle r="12" cx="812" cy="430"></circle><circle r="13" cx="586" cy="522"></circle></g></svg>